FiraSystemMaster-Bold.ufo
<glyph name="zero" format="1">
  <advance width="556"/>
  <unicode hex="0030"/>
  <outline>
    <contour>
      <point x="112" y="716"/>
      <point x="14" y="589"/>
      <point x="14" y="349" type="curve" smooth="yes"/>
      <point x="14" y="110"/>
      <point x="112" y="-20"/>
      <point x="278" y="-20" type="curve" smooth="yes"/>
      <point x="444" y="-20"/>
      <point x="542" y="110"/>
      <point x="542" y="349" type="curve" smooth="yes"/>
      <point x="542" y="589"/>
      <point x="444" y="716"/>
      <point x="278" y="716" type="curve" smooth="yes"/>
    </contour>
    <contour>
      <point x="323" y="573"/>
      <point x="340" y="535"/>
      <point x="340" y="349" type="curve" smooth="yes"/>
      <point x="340" y="164"/>
      <point x="323" y="124"/>
      <point x="278" y="124" type="curve" smooth="yes"/>
      <point x="233" y="124"/>
      <point x="216" y="170"/>
      <point x="216" y="349" type="curve" smooth="yes"/>
      <point x="216" y="527"/>
      <point x="233" y="573"/>
      <point x="278" y="573" type="curve" smooth="yes"/>
    </contour>
  </outline>
</glyph>
<glyph name="one" format="1">
  <advance width="556"/>
  <unicode hex="0031"/>
  <outline>
    <contour>
      <point x="244" y="696" type="line"/>
      <point x="3" y="552" type="line"/>
      <point x="89" y="423" type="line"/>
      <point x="228" y="506" type="line"/>
      <point x="228" y="116" type="line"/>
      <point x="420" y="116" type="line"/>
      <point x="420" y="696" type="line"/>
    </contour>
    <contour>
      <point x="73" y="148" type="line"/>
      <point x="73" y="0" type="line"/>
      <point x="543" y="0" type="line"/>
      <point x="543" y="148" type="line"/>
    </contour>
  </outline>
</glyph>
<glyph name="three" format="1">
  <advance width="556"/>
  <unicode hex="0033"/>
  <outline>
    <contour>
      <point x="149" y="716"/>
      <point x="65" y="679"/>
      <point x="-1" y="616" type="curve"/>
      <point x="99" y="513" type="line"/>
      <point x="135" y="547"/>
      <point x="179" y="572"/>
      <point x="233" y="572" type="curve" smooth="yes"/>
      <point x="285" y="572"/>
      <point x="318" y="546"/>
      <point x="318" y="505" type="curve" smooth="yes"/>
      <point x="318" y="457"/>
      <point x="286" y="431"/>
      <point x="227" y="431" type="curve" smooth="yes"/>
      <point x="175" y="431" type="line"/>
      <point x="153" y="299" type="line"/>
      <point x="224" y="299" type="line" smooth="yes"/>
      <point x="293" y="299"/>
      <point x="329" y="271"/>
      <point x="329" y="210" type="curve" smooth="yes"/>
      <point x="329" y="156"/>
      <point x="285" y="128"/>
      <point x="231" y="128" type="curve" smooth="yes"/>
      <point x="178" y="128"/>
      <point x="132" y="148"/>
      <point x="91" y="194" type="curve"/>
      <point x="-15" y="91" type="line"/>
      <point x="45" y="23"/>
      <point x="129" y="-20"/>
      <point x="246" y="-20" type="curve" smooth="yes"/>
      <point x="425" y="-20"/>
      <point x="531" y="78"/>
      <point x="531" y="193" type="curve" smooth="yes"/>
      <point x="531" y="306"/>
      <point x="471" y="350"/>
      <point x="365" y="369" type="curve"/>
      <point x="456" y="393"/>
      <point x="508" y="446"/>
      <point x="508" y="536" type="curve" smooth="yes"/>
      <point x="508" y="635"/>
      <point x="418" y="716"/>
      <point x="259" y="716" type="curve" smooth="yes"/>
    </contour>
  </outline>
</glyph>
<glyph name="six" format="1">
  <advance width="556"/>
  <unicode hex="0036"/>
  <outline>
    <contour>
      <point x="133" y="716"/>
      <point x="15" y="561"/>
      <point x="15" y="316" type="curve" smooth="yes"/>
      <point x="15" y="110"/>
      <point x="100" y="-20"/>
      <point x="287" y="-20" type="curve" smooth="yes"/>
      <point x="455" y="-20"/>
      <point x="545" y="101"/>
      <point x="545" y="238" type="curve" smooth="yes"/>
      <point x="545" y="387"/>
      <point x="466" y="474"/>
      <point x="350" y="474" type="curve" smooth="yes"/>
      <point x="295" y="474"/>
      <point x="252" y="456"/>
      <point x="209" y="415" type="curve"/>
      <point x="208" y="300" type="line"/>
      <point x="233" y="330"/>
      <point x="258" y="343"/>
      <point x="290" y="343" type="curve" smooth="yes"/>
      <point x="330" y="343"/>
      <point x="348" y="318"/>
      <point x="348" y="237" type="curve" smooth="yes"/>
      <point x="348" y="163"/>
      <point x="329" y="118"/>
      <point x="289" y="118" type="curve" smooth="yes"/>
      <point x="234" y="118"/>
      <point x="220" y="172"/>
      <point x="222" y="345" type="curve"/>
      <point x="220" y="402" type="line"/>
      <point x="227" y="527"/>
      <point x="271" y="580"/>
      <point x="334" y="580" type="curve" smooth="yes"/>
      <point x="371" y="580"/>
      <point x="396" y="569"/>
      <point x="420" y="555" type="curve"/>
      <point x="489" y="670" type="line"/>
      <point x="452" y="696"/>
      <point x="398" y="716"/>
      <point x="329" y="716" type="curve" smooth="yes"/>
    </contour>
  </outline>
</glyph>
<glyph name="eight" format="1">
  <advance width="556"/>
  <unicode hex="0038"/>
  <outline>
    <contour>
      <point x="129" y="716"/>
      <point x="35" y="635"/>
      <point x="35" y="523" type="curve" smooth="yes"/>
      <point x="35" y="455"/>
      <point x="63" y="396"/>
      <point x="143" y="348" type="curve"/>
      <point x="232" y="307" type="line"/>
      <point x="283" y="286" type="line" smooth="yes"/>
      <point x="334" y="265"/>
      <point x="355" y="243"/>
      <point x="355" y="193" type="curve" smooth="yes"/>
      <point x="355" y="151"/>
      <point x="333" y="118"/>
      <point x="283" y="118" type="curve" smooth="yes"/>
      <point x="234" y="118"/>
      <point x="202" y="149"/>
      <point x="202" y="199" type="curve" smooth="yes"/>
      <point x="202" y="248"/>
      <point x="221" y="288"/>
      <point x="261" y="310" type="curve"/>
      <point x="142" y="363" type="line"/>
      <point x="61" y="331"/>
      <point x="10" y="274"/>
      <point x="10" y="187" type="curve" smooth="yes"/>
      <point x="10" y="75"/>
      <point x="103" y="-20"/>
      <point x="274" y="-20" type="curve" smooth="yes"/>
      <point x="454" y="-20"/>
      <point x="547" y="78"/>
      <point x="547" y="190" type="curve" smooth="yes"/>
      <point x="547" y="273"/>
      <point x="505" y="333"/>
      <point x="402" y="385" type="curve"/>
      <point x="310" y="420" type="line"/>
      <point x="282" y="434" type="line" smooth="yes"/>
      <point x="236" y="455"/>
      <point x="221" y="479"/>
      <point x="221" y="520" type="curve" smooth="yes"/>
      <point x="221" y="568"/>
      <point x="245" y="587"/>
      <point x="278" y="587" type="curve" smooth="yes"/>
      <point x="314" y="587"/>
      <point x="336" y="562"/>
      <point x="336" y="522" type="curve" smooth="yes"/>
      <point x="336" y="481"/>
      <point x="328" y="447"/>
      <point x="276" y="412" type="curve"/>
      <point x="403" y="365" type="line"/>
      <point x="488" y="407"/>
      <point x="522" y="469"/>
      <point x="522" y="530" type="curve" smooth="yes"/>
      <point x="522" y="645"/>
      <point x="428" y="716"/>
      <point x="279" y="716" type="curve" smooth="yes"/>
    </contour>
  </outline>
</glyph>
<glyph name="nine" format="1">
  <advance width="556"/>
  <unicode hex="0039"/>
  <outline>
    <contour>
      <point x="123" y="716"/>
      <point x="11" y="618"/>
      <point x="11" y="466" type="curve" smooth="yes"/>
      <point x="11" y="319"/>
      <point x="99" y="234"/>
      <point x="200" y="234" type="curve" smooth="yes"/>
      <point x="261" y="234"/>
      <point x="300" y="254"/>
      <point x="339" y="293" type="curve"/>
      <point x="350" y="428" type="line"/>
      <point x="332" y="387"/>
      <point x="300" y="368"/>
      <point x="269" y="368" type="curve" smooth="yes"/>
      <point x="237" y="368"/>
      <point x="206" y="387"/>
      <point x="206" y="476" type="curve" smooth="yes"/>
      <point x="206" y="550"/>
      <point x="230" y="580"/>
      <point x="273" y="580" type="curve" smooth="yes"/>
      <point x="334" y="580"/>
      <point x="343" y="535"/>
      <point x="341" y="382" type="curve"/>
      <point x="335" y="296" type="line"/>
      <point x="298" y="184"/>
      <point x="225" y="137"/>
      <point x="57" y="100" type="curve"/>
      <point x="94" y="-32" type="line"/>
      <point x="400" y="20"/>
      <point x="541" y="158"/>
      <point x="541" y="438" type="curve" smooth="yes"/>
      <point x="541" y="605"/>
      <point x="452" y="716"/>
      <point x="275" y="716" type="curve" smooth="yes"/>
    </contour>
  </outline>
</glyph>
<glyph name="sterling" format="1">
  <advance width="556"/>
  <unicode hex="00A3"/>
  <outline>
    <contour>
      <point x="177" y="716"/>
      <point x="102" y="622"/>
      <point x="102" y="495" type="curve" smooth="yes"/>
      <point x="102" y="250" type="line" smooth="yes"/>
      <point x="102" y="197"/>
      <point x="100" y="160"/>
      <point x="18" y="139" type="curve"/>
      <point x="18" y="0" type="line"/>
      <point x="507" y="0" type="line"/>
      <point x="529" y="146" type="line"/>
      <point x="230" y="146" type="line"/>
      <point x="285" y="176"/>
      <point x="296" y="213"/>
      <point x="296" y="263" type="curve" smooth="yes"/>
      <point x="296" y="493" type="line" smooth="yes"/>
      <point x="296" y="541"/>
      <point x="312" y="572"/>
      <point x="353" y="572" type="curve" smooth="yes"/>
      <point x="382" y="572"/>
      <point x="406" y="560"/>
      <point x="430" y="521" type="curve"/>
      <point x="549" y="607" type="line"/>
      <point x="499" y="679"/>
      <point x="432" y="716"/>
      <point x="330" y="716" type="curve" smooth="yes"/>
    </contour>
    <contour>
      <point x="33" y="409" type="line"/>
      <point x="33" y="314" type="line"/>
      <point x="467" y="314" type="line"/>
      <point x="467" y="409" type="line"/>
    </contour>
  </outline>
</glyph>
<glyph name="section" format="1">
  <advance width="556"/>
  <unicode hex="00A7"/>
  <outline>
    <contour>
      <point x="146" y="716"/>
      <point x="61" y="641"/>
      <point x="61" y="542" type="curve" smooth="yes"/>
      <point x="61" y="457"/>
      <point x="103" y="409"/>
      <point x="256" y="364" type="curve" smooth="yes"/>
      <point x="335" y="341"/>
      <point x="353" y="324"/>
      <point x="353" y="298" type="curve" smooth="yes"/>
      <point x="353" y="280"/>
      <point x="344" y="254"/>
      <point x="327" y="234" type="curve"/>
      <point x="431" y="191" type="line"/>
      <point x="481" y="218"/>
      <point x="521" y="261"/>
      <point x="521" y="325" type="curve" smooth="yes"/>
      <point x="521" y="415"/>
      <point x="458" y="453"/>
      <point x="365" y="478" type="curve" smooth="yes"/>
      <point x="258" y="507"/>
      <point x="247" y="517"/>
      <point x="247" y="547" type="curve" smooth="yes"/>
      <point x="247" y="572"/>
      <point x="264" y="584"/>
      <point x="312" y="584" type="curve" smooth="yes"/>
      <point x="356" y="584"/>
      <point x="402" y="574"/>
      <point x="445" y="548" type="curve"/>
      <point x="509" y="659" type="line"/>
      <point x="453" y="695"/>
      <point x="376" y="716"/>
      <point x="298" y="716" type="curve" smooth="yes"/>
    </contour>
    <contour>
      <point x="80" y="405"/>
      <point x="35" y="363"/>
      <point x="35" y="300" type="curve" smooth="yes"/>
      <point x="35" y="213"/>
      <point x="97" y="173"/>
      <point x="185" y="149" type="curve" smooth="yes"/>
      <point x="303" y="117"/>
      <point x="311" y="105"/>
      <point x="311" y="77" type="curve" smooth="yes"/>
      <point x="311" y="53"/>
      <point x="291" y="41"/>
      <point x="239" y="41" type="curve" smooth="yes"/>
      <point x="192" y="41"/>
      <point x="149" y="57"/>
      <point x="104" y="84" type="curve"/>
      <point x="43" y="-34" type="line"/>
      <point x="96" y="-69"/>
      <point x="166" y="-91"/>
      <point x="254" y="-91" type="curve" smooth="yes"/>
      <point x="406" y="-91"/>
      <point x="497" y="-21"/>
      <point x="497" y="81" type="curve" smooth="yes"/>
      <point x="497" y="183"/>
      <point x="444" y="206"/>
      <point x="275" y="267" type="curve" smooth="yes"/>
      <point x="216" y="288"/>
      <point x="203" y="304"/>
      <point x="203" y="329" type="curve" smooth="yes"/>
      <point x="203" y="346"/>
      <point x="208" y="371"/>
      <point x="226" y="393" type="curve"/>
      <point x="130" y="432" type="line"/>
    </contour>
  </outline>
</glyph>
<glyph name="dagger" format="1">
  <advance width="556"/>
  <unicode hex="2020"/>
  <outline>
    <contour>
      <point x="186" y="696" type="line"/>
      <point x="186" y="560" type="line"/>
      <point x="17" y="560" type="line"/>
      <point x="17" y="401" type="line"/>
      <point x="186" y="401" type="line"/>
      <point x="186" y="0" type="line"/>
      <point x="370" y="0" type="line"/>
      <point x="370" y="401" type="line"/>
      <point x="538" y="401" type="line"/>
      <point x="538" y="560" type="line"/>
      <point x="370" y="560" type="line"/>
      <point x="370" y="696" type="line"/>
    </contour>
  </outline>
</glyph>
<glyph name="partialdiff" format="1">
  <advance width="556"/>
  <unicode hex="2202"/>
  <outline>
    <contour>
      <point x="68" y="603" type="line"/>
      <point x="226" y="567"/>
      <point x="303" y="520"/>
      <point x="342" y="376" type="curve"/>
      <point x="334" y="300" type="line"/>
      <point x="334" y="189"/>
      <point x="336" y="116"/>
      <point x="271" y="116" type="curve" smooth="yes"/>
      <point x="227" y="116"/>
      <point x="206" y="160"/>
      <point x="206" y="215" type="curve" smooth="yes"/>
      <point x="206" y="301"/>
      <point x="238" y="315"/>
      <point x="269" y="315" type="curve" smooth="yes"/>
      <point x="300" y="315"/>
      <point x="321" y="299"/>
      <point x="346" y="255" type="curve"/>
      <point x="347" y="379" type="line"/>
      <point x="312" y="432"/>
      <point x="273" y="456"/>
      <point x="202" y="456" type="curve" smooth="yes"/>
      <point x="94" y="456"/>
      <point x="8" y="362"/>
      <point x="8" y="225" type="curve" smooth="yes"/>
      <point x="8" y="77"/>
      <point x="115" y="-20"/>
      <point x="271" y="-20" type="curve" smooth="yes"/>
      <point x="452" y="-20"/>
      <point x="538" y="111"/>
      <point x="538" y="263" type="curve" smooth="yes"/>
      <point x="538" y="527"/>
      <point x="424" y="681"/>
      <point x="110" y="736" type="curve"/>
    </contour>
  </outline>
</glyph>
<glyph name="Euro.tf" format="1">
  <advance width="556"/>
  <outline>
    <contour>
      <point x="232" y="716"/>
      <point x="114" y="614"/>
      <point x="78" y="448" type="curve"/>
      <point x="78" y="245" type="line"/>
      <point x="108" y="78"/>
      <point x="213" y="-20"/>
      <point x="377" y="-20" type="curve" smooth="yes"/>
      <point x="436" y="-20"/>
      <point x="484" y="-9"/>
      <point x="542" y="17" type="curve"/>
      <point x="542" y="162" type="line"/>
      <point x="497" y="135"/>
      <point x="449" y="118"/>
      <point x="398" y="118" type="curve" smooth="yes"/>
      <point x="328" y="118"/>
      <point x="288" y="155"/>
      <point x="274" y="249" type="curve"/>
      <point x="274" y="442" type="line"/>
      <point x="292" y="537"/>
      <point x="326" y="579"/>
      <point x="394" y="579" type="curve" smooth="yes"/>
      <point x="440" y="579"/>
      <point x="479" y="567"/>
      <point x="520" y="542" type="curve"/>
      <point x="578" y="658" type="line"/>
      <point x="533" y="688"/>
      <point x="473" y="716"/>
      <point x="383" y="716" type="curve" smooth="yes"/>
    </contour>
    <contour>
      <point x="23" y="318" type="line"/>
      <point x="-2" y="223" type="line"/>
      <point x="453" y="223" type="line"/>
      <point x="478" y="318" type="line"/>
    </contour>
    <contour>
      <point x="23" y="473" type="line"/>
      <point x="-2" y="378" type="line"/>
      <point x="491" y="378" type="line"/>
      <point x="516" y="473" type="line"/>
    </contour>
  </outline>
</glyph>
<glyph name="Euro.tosf" format="1">
  <advance width="556"/>
  <outline>
    <contour>
      <point x="252" y="696"/>
      <point x="129" y="594"/>
      <point x="93" y="438" type="curve"/>
      <point x="93" y="235" type="line"/>
      <point x="123" y="78"/>
      <point x="233" y="-20"/>
      <point x="402" y="-20" type="curve" smooth="yes"/>
      <point x="456" y="-20"/>
      <point x="499" y="-9"/>
      <point x="557" y="17" type="curve"/>
      <point x="557" y="162" type="line"/>
      <point x="512" y="135"/>
      <point x="464" y="118"/>
      <point x="418" y="118" type="curve" smooth="yes"/>
      <point x="351" y="118"/>
      <point x="306" y="155"/>
      <point x="289" y="239" type="curve"/>
      <point x="289" y="432" type="line"/>
      <point x="307" y="517"/>
      <point x="355" y="559"/>
      <point x="415" y="559" type="curve" smooth="yes"/>
      <point x="455" y="559"/>
      <point x="489" y="547"/>
      <point x="525" y="522" type="curve"/>
      <point x="593" y="638" type="line"/>
      <point x="548" y="668"/>
      <point x="493" y="696"/>
      <point x="408" y="696" type="curve" smooth="yes"/>
    </contour>
    <contour>
      <point x="38" y="308" type="line"/>
      <point x="13" y="213" type="line"/>
      <point x="448" y="213" type="line"/>
      <point x="473" y="308" type="line"/>
    </contour>
    <contour>
      <point x="38" y="463" type="line"/>
      <point x="13" y="368" type="line"/>
      <point x="486" y="368" type="line"/>
      <point x="511" y="463" type="line"/>
    </contour>
  </outline>
</glyph>
<glyph name=".notdef" format="1">
  <advance width="666"/>
  <outline>
    <contour>
      <point x="123" y="689" type="line"/>
      <point x="123" y="0" type="line"/>
      <point x="543" y="0" type="line"/>
      <point x="543" y="689" type="line"/>
    </contour>
    <contour>
      <point x="295" y="205"/>
      <point x="280" y="190"/>
      <point x="280" y="170" type="curve" smooth="yes"/>
      <point x="280" y="149"/>
      <point x="295" y="133"/>
      <point x="315" y="133" type="curve" smooth="yes"/>
      <point x="335" y="133"/>
      <point x="350" y="149"/>
      <point x="350" y="170" type="curve" smooth="yes"/>
      <point x="350" y="190"/>
      <point x="335" y="205"/>
      <point x="315" y="205" type="curve" smooth="yes"/>
    </contour>
    <contour>
      <point x="489" y="52" type="line"/>
      <point x="178" y="52" type="line"/>
      <point x="178" y="637" type="line"/>
      <point x="489" y="637" type="line"/>
    </contour>
    <contour>
      <point x="285" y="536"/>
      <point x="231" y="524"/>
      <point x="231" y="497" type="curve" smooth="yes"/>
      <point x="231" y="484"/>
      <point x="240" y="474"/>
      <point x="255" y="474" type="curve" smooth="yes"/>
      <point x="259" y="474"/>
      <point x="263" y="475"/>
      <point x="268" y="477" type="curve" smooth="yes"/>
      <point x="285" y="485"/>
      <point x="299" y="488"/>
      <point x="320" y="488" type="curve" smooth="yes"/>
      <point x="370" y="488"/>
      <point x="381" y="458"/>
      <point x="381" y="419" type="curve" smooth="yes"/>
      <point x="381" y="366"/>
      <point x="362" y="346"/>
      <point x="290" y="342" type="curve"/>
      <point x="290" y="258" type="line" smooth="yes"/>
      <point x="290" y="243"/>
      <point x="302" y="234"/>
      <point x="315" y="234" type="curve" smooth="yes"/>
      <point x="327" y="234"/>
      <point x="340" y="243"/>
      <point x="340" y="258" type="curve" smooth="yes"/>
      <point x="340" y="303" type="line"/>
      <point x="407" y="313"/>
      <point x="435" y="351"/>
      <point x="435" y="421" type="curve" smooth="yes"/>
      <point x="435" y="481"/>
      <point x="410" y="536"/>
      <point x="324" y="536" type="curve" smooth="yes"/>
    </contour>
  </outline>
</glyph>
<glyph name="caron.sc" format="1">
  <advance width="468"/>
  <outline>
    <component base="caron" yOffset="30"/>
    <contour>
      <point x="234" y="571" type="move" name="_top"/>
    </contour>
  </outline>
</glyph>
<glyph name="caroncombcomb" format="1">
  <advance width="468"/>
  <outline>
    <component base="uni030C"/>
    <contour>
      <point x="234" y="965" type="move" name="top"/>
    </contour>
    <contour>
      <point x="234" y="696" type="move" name="_top"/>
    </contour>
  </outline>
</glyph>
<glyph name="dagger.lf" format="1">
  <advance width="540"/>
  <outline>
    <contour>
      <point x="178" y="680" type="line"/>
      <point x="178" y="544" type="line"/>
      <point x="15" y="544" type="line"/>
      <point x="15" y="385" type="line"/>
      <point x="178" y="385" type="line"/>
      <point x="178" y="0" type="line"/>
      <point x="362" y="0" type="line"/>
      <point x="362" y="385" type="line"/>
      <point x="525" y="385" type="line"/>
      <point x="525" y="544" type="line"/>
      <point x="362" y="544" type="line"/>
      <point x="362" y="680" type="line"/>
    </contour>
  </outline>
</glyph>
<glyph name="daggerdbl.lf" format="1">
  <advance width="540"/>
  <outline>
    <contour>
      <point x="15" y="295" type="line"/>
      <point x="15" y="136" type="line"/>
      <point x="525" y="136" type="line"/>
      <point x="525" y="295" type="line"/>
    </contour>
    <component base="dagger.lf"/>
  </outline>
</glyph>
<glyph name="daggerdbl.tf" format="1">
  <advance width="556"/>
  <outline>
    <contour>
      <point x="23" y="295" type="line"/>
      <point x="23" y="136" type="line"/>
      <point x="533" y="136" type="line"/>
      <point x="533" y="295" type="line"/>
    </contour>
    <component base="dagger.tf"/>
  </outline>
</glyph>
<glyph name="dollar.tf" format="1">
  <advance width="556"/>
  <outline>
    <contour>
      <point x="215" y="9" type="line"/>
      <point x="215" y="-165" type="line"/>
      <point x="350" y="-165" type="line"/>
      <point x="350" y="5" type="line"/>
    </contour>
    <contour>
      <point x="215" y="854" type="line"/>
      <point x="215" y="683" type="line"/>
      <point x="350" y="688" type="line"/>
      <point x="350" y="854" type="line"/>
    </contour>
    <contour>
      <point x="134" y="705"/>
      <point x="25" y="626"/>
      <point x="25" y="498" type="curve" smooth="yes"/>
      <point x="25" y="400"/>
      <point x="71" y="331"/>
      <point x="229" y="280" type="curve" smooth="yes"/>
      <point x="314" y="253"/>
      <point x="335" y="235"/>
      <point x="335" y="195" type="curve" smooth="yes"/>
      <point x="335" y="160"/>
      <point x="309" y="134"/>
      <point x="253" y="134" type="curve" smooth="yes"/>
      <point x="192" y="134"/>
      <point x="139" y="158"/>
      <point x="92" y="200" type="curve"/>
      <point x="-3" y="92" type="line"/>
      <point x="51" y="39"/>
      <point x="135" y="-9"/>
      <point x="260" y="-9" type="curve" smooth="yes"/>
      <point x="433" y="-9"/>
      <point x="536" y="82"/>
      <point x="536" y="212" type="curve" smooth="yes"/>
      <point x="536" y="333"/>
      <point x="476" y="393"/>
      <point x="341" y="438" type="curve" smooth="yes"/>
      <point x="248" y="469"/>
      <point x="224" y="479"/>
      <point x="224" y="514" type="curve" smooth="yes"/>
      <point x="224" y="544"/>
      <point x="247" y="563"/>
      <point x="294" y="563" type="curve" smooth="yes"/>
      <point x="346" y="563"/>
      <point x="391" y="544"/>
      <point x="434" y="509" type="curve"/>
      <point x="520" y="612" type="line"/>
      <point x="461" y="672"/>
      <point x="384" y="705"/>
      <point x="278" y="705" type="curve" smooth="yes"/>
    </contour>
    <contour>
      <point x="278" y="10" type="move" name="bottom"/>
    </contour>
  </outline>
</glyph>
<glyph name="dollar.tosf" format="1">
  <advance width="556"/>
  <outline>
    <contour>
      <point x="211" y="-1" type="line"/>
      <point x="211" y="-165" type="line"/>
      <point x="346" y="-165" type="line"/>
      <point x="346" y="5" type="line"/>
    </contour>
    <contour>
      <point x="211" y="834" type="line"/>
      <point x="211" y="673" type="line"/>
      <point x="346" y="678" type="line"/>
      <point x="346" y="834" type="line"/>
    </contour>
    <contour>
      <point x="155" y="690"/>
      <point x="32" y="621"/>
      <point x="32" y="488" type="curve" smooth="yes"/>
      <point x="32" y="392"/>
      <point x="74" y="330"/>
      <point x="229" y="275" type="curve" smooth="yes"/>
      <point x="305" y="248"/>
      <point x="326" y="230"/>
      <point x="326" y="191" type="curve" smooth="yes"/>
      <point x="326" y="158"/>
      <point x="300" y="132"/>
      <point x="248" y="132" type="curve" smooth="yes"/>
      <point x="197" y="132"/>
      <point x="138" y="155"/>
      <point x="88" y="198" type="curve"/>
      <point x="-7" y="93" type="line"/>
      <point x="47" y="38"/>
      <point x="140" y="-9"/>
      <point x="256" y="-9" type="curve" smooth="yes"/>
      <point x="420" y="-9"/>
      <point x="524" y="80"/>
      <point x="524" y="209" type="curve" smooth="yes"/>
      <point x="524" y="326"/>
      <point x="464" y="379"/>
      <point x="338" y="425" type="curve" smooth="yes"/>
      <point x="251" y="457"/>
      <point x="231" y="470"/>
      <point x="231" y="504" type="curve" smooth="yes"/>
      <point x="231" y="533"/>
      <point x="256" y="551"/>
      <point x="303" y="551" type="curve" smooth="yes"/>
      <point x="341" y="551"/>
      <point x="388" y="533"/>
      <point x="441" y="498" type="curve"/>
      <point x="518" y="600" type="line"/>
      <point x="458" y="658"/>
      <point x="378" y="690"/>
      <point x="285" y="690" type="curve" smooth="yes"/>
    </contour>
    <contour>
      <point x="285" y="671" type="move" name="top"/>
    </contour>
    <contour>
      <point x="278" y="10" type="move" name="bottom"/>
    </contour>
  </outline>
</glyph>
<glyph name="eight.tosf" format="1">
  <advance width="556"/>
  <outline>
    <contour>
      <point x="129" y="696"/>
      <point x="35" y="615"/>
      <point x="35" y="508" type="curve" smooth="yes"/>
      <point x="35" y="445"/>
      <point x="63" y="386"/>
      <point x="143" y="338" type="curve"/>
      <point x="232" y="297" type="line"/>
      <point x="283" y="276" type="line" smooth="yes"/>
      <point x="334" y="255"/>
      <point x="355" y="233"/>
      <point x="355" y="188" type="curve" smooth="yes"/>
      <point x="355" y="151"/>
      <point x="333" y="118"/>
      <point x="283" y="118" type="curve" smooth="yes"/>
      <point x="234" y="118"/>
      <point x="202" y="149"/>
      <point x="202" y="194" type="curve" smooth="yes"/>
      <point x="202" y="238"/>
      <point x="221" y="278"/>
      <point x="261" y="300" type="curve"/>
      <point x="142" y="353" type="line"/>
      <point x="61" y="321"/>
      <point x="10" y="264"/>
      <point x="10" y="182" type="curve" smooth="yes"/>
      <point x="10" y="75"/>
      <point x="103" y="-20"/>
      <point x="274" y="-20" type="curve" smooth="yes"/>
      <point x="454" y="-20"/>
      <point x="547" y="78"/>
      <point x="547" y="185" type="curve" smooth="yes"/>
      <point x="547" y="263"/>
      <point x="505" y="323"/>
      <point x="402" y="375" type="curve"/>
      <point x="310" y="410" type="line"/>
      <point x="282" y="423" type="line" smooth="yes"/>
      <point x="236" y="445"/>
      <point x="221" y="469"/>
      <point x="221" y="505" type="curve" smooth="yes"/>
      <point x="221" y="548"/>
      <point x="245" y="567"/>
      <point x="278" y="567" type="curve" smooth="yes"/>
      <point x="314" y="567"/>
      <point x="336" y="542"/>
      <point x="336" y="507" type="curve" smooth="yes"/>
      <point x="336" y="471"/>
      <point x="328" y="437"/>
      <point x="276" y="402" type="curve"/>
      <point x="403" y="355" type="line"/>
      <point x="488" y="397"/>
      <point x="522" y="459"/>
      <point x="522" y="515" type="curve" smooth="yes"/>
      <point x="522" y="625"/>
      <point x="428" y="696"/>
      <point x="279" y="696" type="curve" smooth="yes"/>
    </contour>
  </outline>
</glyph>
<glyph name="five.tf" format="1">
  <advance width="556"/>
  <outline>
    <contour>
      <point x="48" y="696" type="line"/>
      <point x="48" y="310" type="line"/>
      <point x="177" y="310" type="line"/>
      <point x="208" y="328"/>
      <point x="231" y="334"/>
      <point x="253" y="334" type="curve" smooth="yes"/>
      <point x="301" y="334"/>
      <point x="333" y="308"/>
      <point x="333" y="232" type="curve" smooth="yes"/>
      <point x="333" y="160"/>
      <point x="298" y="126"/>
      <point x="238" y="126" type="curve" smooth="yes"/>
      <point x="186" y="126"/>
      <point x="142" y="152"/>
      <point x="112" y="192" type="curve"/>
      <point x="3" y="93" type="line"/>
      <point x="54" y="29"/>
      <point x="135" y="-20"/>
      <point x="246" y="-20" type="curve" smooth="yes"/>
      <point x="424" y="-20"/>
      <point x="535" y="80"/>
      <point x="535" y="234" type="curve" smooth="yes"/>
      <point x="535" y="384"/>
      <point x="447" y="465"/>
      <point x="337" y="465" type="curve" smooth="yes"/>
      <point x="308" y="465"/>
      <point x="273" y="459"/>
      <point x="238" y="444" type="curve"/>
      <point x="238" y="558" type="line"/>
      <point x="477" y="558" type="line"/>
      <point x="498" y="696" type="line"/>
    </contour>
  </outline>
</glyph>
<glyph name="five.tosf" format="1">
  <advance width="556"/>
  <outline>
    <contour>
      <point x="51" y="571" type="line"/>
      <point x="51" y="190" type="line"/>
      <point x="180" y="190" type="line"/>
      <point x="209" y="208"/>
      <point x="230" y="214"/>
      <point x="252" y="214" type="curve" smooth="yes"/>
      <point x="300" y="214"/>
      <point x="333" y="191"/>
      <point x="333" y="118" type="curve" smooth="yes"/>
      <point x="333" y="52"/>
      <point x="299" y="18"/>
      <point x="238" y="18" type="curve" smooth="yes"/>
      <point x="186" y="18"/>
      <point x="145" y="44"/>
      <point x="115" y="84" type="curve"/>
      <point x="6" y="-15" type="line"/>
      <point x="57" y="-79"/>
      <point x="134" y="-128"/>
      <point x="247" y="-128" type="curve" smooth="yes"/>
      <point x="422" y="-128"/>
      <point x="533" y="-28"/>
      <point x="533" y="121" type="curve" smooth="yes"/>
      <point x="533" y="265"/>
      <point x="446" y="345"/>
      <point x="336" y="345" type="curve" smooth="yes"/>
      <point x="305" y="345"/>
      <point x="271" y="339"/>
      <point x="238" y="324" type="curve"/>
      <point x="238" y="433" type="line"/>
      <point x="476" y="433" type="line"/>
      <point x="497" y="571" type="line"/>
    </contour>
  </outline>
</glyph>
<glyph name="four.tf" format="1">
  <advance width="556"/>
  <outline>
    <contour>
      <point x="8" y="263" type="line"/>
      <point x="8" y="134" type="line"/>
      <point x="548" y="134" type="line"/>
      <point x="548" y="280" type="line"/>
      <point x="211" y="280" type="line"/>
      <point x="364" y="657" type="line"/>
      <point x="195" y="717" type="line"/>
    </contour>
    <contour>
      <point x="318" y="438" type="line"/>
      <point x="294" y="264" type="line"/>
      <point x="294" y="0" type="line"/>
      <point x="488" y="0" type="line"/>
      <point x="488" y="438" type="line"/>
    </contour>
  </outline>
</glyph>
<glyph name="four.tosf" format="1">
  <advance width="556"/>
  <outline>
    <contour>
      <point x="8" y="148" type="line"/>
      <point x="8" y="22" type="line"/>
      <point x="548" y="22" type="line"/>
      <point x="548" y="165" type="line"/>
      <point x="211" y="165" type="line"/>
      <point x="364" y="527" type="line"/>
      <point x="195" y="587" type="line"/>
    </contour>
    <contour>
      <point x="323" y="316" type="line"/>
      <point x="299" y="149" type="line"/>
      <point x="299" y="-112" type="line"/>
      <point x="488" y="-112" type="line"/>
      <point x="488" y="316" type="line"/>
    </contour>
  </outline>
</glyph>
<glyph name="logicalnot.lf" format="1">
  <advance width="550"/>
  <outline>
    <contour>
      <point x="40" y="407" type="line"/>
      <point x="40" y="257" type="line"/>
      <point x="350" y="257" type="line"/>
      <point x="350" y="97" type="line"/>
      <point x="510" y="97" type="line"/>
      <point x="510" y="407" type="line"/>
    </contour>
  </outline>
</glyph>
<glyph name="lozenge.tf" format="1">
  <advance width="556"/>
  <outline>
    <contour>
      <point x="171" y="696" type="line"/>
      <point x="3" y="347" type="line"/>
      <point x="171" y="0" type="line"/>
      <point x="383" y="0" type="line"/>
      <point x="553" y="347" type="line"/>
      <point x="383" y="696" type="line"/>
    </contour>
    <contour>
      <point x="358" y="348" type="line"/>
      <point x="277" y="136" type="line"/>
      <point x="198" y="348" type="line"/>
      <point x="277" y="559" type="line"/>
    </contour>
  </outline>
</glyph>
<glyph name="nine.tosf" format="1">
  <advance width="556"/>
  <outline>
    <contour>
      <point x="126" y="587"/>
      <point x="11" y="489"/>
      <point x="11" y="349" type="curve" smooth="yes"/>
      <point x="11" y="209"/>
      <point x="104" y="124"/>
      <point x="207" y="124" type="curve" smooth="yes"/>
      <point x="262" y="124"/>
      <point x="299" y="145"/>
      <point x="340" y="183" type="curve"/>
      <point x="348" y="319" type="line"/>
      <point x="324" y="274"/>
      <point x="297" y="258"/>
      <point x="267" y="258" type="curve" smooth="yes"/>
      <point x="238" y="258"/>
      <point x="206" y="277"/>
      <point x="206" y="359" type="curve" smooth="yes"/>
      <point x="206" y="421"/>
      <point x="235" y="451"/>
      <point x="274" y="451" type="curve" smooth="yes"/>
      <point x="329" y="451"/>
      <point x="341" y="405"/>
      <point x="341" y="272" type="curve"/>
      <point x="339" y="180" type="line"/>
      <point x="298" y="86"/>
      <point x="234" y="42"/>
      <point x="59" y="5" type="curve"/>
      <point x="98" y="-131" type="line"/>
      <point x="394" y="-79"/>
      <point x="541" y="59"/>
      <point x="541" y="324" type="curve" smooth="yes"/>
      <point x="541" y="476"/>
      <point x="448" y="587"/>
      <point x="276" y="587" type="curve" smooth="yes"/>
    </contour>
  </outline>
</glyph>
<glyph name="notequal.lf" format="1">
  <advance width="530"/>
  <outline>
    <contour>
      <point x="45" y="72" type="line"/>
      <point x="143" y="17" type="line"/>
      <point x="485" y="588" type="line"/>
      <point x="387" y="643" type="line"/>
    </contour>
    <component base="equal.lf"/>
  </outline>
</glyph>
<glyph name="numbersign.tf" format="1">
  <advance width="556"/>
  <outline>
    <contour>
      <point x="357" y="696" type="line"/>
      <point x="267" y="0" type="line"/>
      <point x="430" y="0" type="line"/>
      <point x="520" y="696" type="line"/>
    </contour>
    <contour>
      <point x="3" y="257" type="line"/>
      <point x="3" y="131" type="line"/>
      <point x="516" y="131" type="line"/>
      <point x="516" y="257" type="line"/>
    </contour>
    <contour>
      <point x="126" y="696" type="line"/>
      <point x="36" y="0" type="line"/>
      <point x="199" y="0" type="line"/>
      <point x="289" y="696" type="line"/>
    </contour>
    <contour>
      <point x="40" y="571" type="line"/>
      <point x="40" y="445" type="line"/>
      <point x="553" y="445" type="line"/>
      <point x="553" y="571" type="line"/>
    </contour>
  </outline>
</glyph>
<glyph name="one.lf" format="1">
  <advance width="482"/>
  <outline>
    <contour>
      <point x="241" y="680" type="line"/>
      <point x="0" y="536" type="line"/>
      <point x="86" y="407" type="line"/>
      <point x="225" y="492" type="line"/>
      <point x="225" y="0" type="line"/>
      <point x="417" y="0" type="line"/>
      <point x="417" y="680" type="line"/>
    </contour>
  </outline>
</glyph>
<glyph name="one.tosf" format="1">
  <advance width="556"/>
  <outline>
    <contour>
      <point x="255" y="571" type="line"/>
      <point x="11" y="427" type="line"/>
      <point x="97" y="298" type="line"/>
      <point x="239" y="384" type="line"/>
      <point x="239" y="10" type="line"/>
      <point x="431" y="10" type="line"/>
      <point x="431" y="571" type="line"/>
    </contour>
    <contour>
      <point x="86" y="144" type="line"/>
      <point x="86" y="0" type="line"/>
      <point x="546" y="0" type="line"/>
      <point x="546" y="144" type="line"/>
    </contour>
  </outline>
</glyph>
<glyph name="product.tf" format="1">
  <advance width="556"/>
  <outline>
    <contour>
      <point x="-12" y="696" type="line"/>
      <point x="-12" y="550" type="line"/>
      <point x="53" y="550" type="line"/>
      <point x="53" y="-227" type="line"/>
      <point x="238" y="-207" type="line"/>
      <point x="238" y="550" type="line"/>
      <point x="318" y="550" type="line"/>
      <point x="318" y="-227" type="line"/>
      <point x="503" y="-207" type="line"/>
      <point x="503" y="550" type="line"/>
      <point x="568" y="550" type="line"/>
      <point x="568" y="696" type="line"/>
    </contour>
  </outline>
</glyph>
<glyph name="radical.tf" format="1">
  <advance width="556"/>
  <outline>
    <contour>
      <point x="447" y="898" type="line"/>
      <point x="268" y="170" type="line"/>
      <point x="178" y="518" type="line"/>
      <point x="-7" y="464" type="line"/>
      <point x="162" y="0" type="line"/>
      <point x="388" y="0" type="line"/>
      <point x="595" y="752" type="line"/>
      <point x="788" y="752" type="line"/>
      <point x="788" y="898" type="line"/>
    </contour>
  </outline>
</glyph>
<glyph name="seven.tf" format="1">
  <advance width="556"/>
  <outline>
    <contour>
      <point x="32" y="696" type="line"/>
      <point x="32" y="550" type="line"/>
      <point x="316" y="550" type="line"/>
      <point x="85" y="38" type="line"/>
      <point x="260" y="-29" type="line"/>
      <point x="524" y="566" type="line"/>
      <point x="524" y="696" type="line"/>
    </contour>
  </outline>
</glyph>
<glyph name="seven.tosf" format="1">
  <advance width="556"/>
  <outline>
    <contour>
      <point x="28" y="571" type="line"/>
      <point x="28" y="425" type="line"/>
      <point x="307" y="425" type="line"/>
      <point x="87" y="-69" type="line"/>
      <point x="266" y="-129" type="line"/>
      <point x="515" y="441" type="line"/>
      <point x="515" y="571" type="line"/>
    </contour>
  </outline>
</glyph>
<glyph name="six.tosf" format="1">
  <advance width="556"/>
  <outline>
    <contour>
      <point x="133" y="696"/>
      <point x="15" y="541"/>
      <point x="15" y="306" type="curve" smooth="yes"/>
      <point x="15" y="110"/>
      <point x="100" y="-20"/>
      <point x="286" y="-20" type="curve" smooth="yes"/>
      <point x="454" y="-20"/>
      <point x="545" y="101"/>
      <point x="545" y="233" type="curve" smooth="yes"/>
      <point x="545" y="377"/>
      <point x="466" y="464"/>
      <point x="350" y="464" type="curve" smooth="yes"/>
      <point x="296" y="464"/>
      <point x="252" y="446"/>
      <point x="209" y="405" type="curve"/>
      <point x="208" y="290" type="line"/>
      <point x="233" y="320"/>
      <point x="258" y="333"/>
      <point x="290" y="333" type="curve" smooth="yes"/>
      <point x="329" y="333"/>
      <point x="348" y="308"/>
      <point x="348" y="232" type="curve" smooth="yes"/>
      <point x="348" y="163"/>
      <point x="329" y="118"/>
      <point x="289" y="118" type="curve" smooth="yes"/>
      <point x="234" y="118"/>
      <point x="220" y="172"/>
      <point x="222" y="335" type="curve"/>
      <point x="220" y="392" type="line"/>
      <point x="227" y="507"/>
      <point x="271" y="560"/>
      <point x="334" y="560" type="curve" smooth="yes"/>
      <point x="371" y="560"/>
      <point x="396" y="549"/>
      <point x="420" y="535" type="curve"/>
      <point x="489" y="650" type="line"/>
      <point x="452" y="676"/>
      <point x="398" y="696"/>
      <point x="329" y="696" type="curve" smooth="yes"/>
    </contour>
  </outline>
</glyph>
<glyph name="sterling.tosf" format="1">
  <advance width="556"/>
  <outline>
    <contour>
      <point x="182" y="696"/>
      <point x="107" y="602"/>
      <point x="107" y="475" type="curve" smooth="yes"/>
      <point x="107" y="250" type="line" smooth="yes"/>
      <point x="107" y="197"/>
      <point x="105" y="160"/>
      <point x="23" y="139" type="curve"/>
      <point x="23" y="0" type="line"/>
      <point x="502" y="0" type="line"/>
      <point x="524" y="146" type="line"/>
      <point x="235" y="146" type="line"/>
      <point x="290" y="176"/>
      <point x="301" y="213"/>
      <point x="301" y="263" type="curve" smooth="yes"/>
      <point x="301" y="473" type="line" smooth="yes"/>
      <point x="301" y="521"/>
      <point x="315" y="552"/>
      <point x="353" y="552" type="curve" smooth="yes"/>
      <point x="382" y="552"/>
      <point x="401" y="540"/>
      <point x="425" y="501" type="curve"/>
      <point x="544" y="587" type="line"/>
      <point x="494" y="659"/>
      <point x="427" y="696"/>
      <point x="330" y="696" type="curve" smooth="yes"/>
    </contour>
    <contour>
      <point x="38" y="399" type="line"/>
      <point x="38" y="304" type="line"/>
      <point x="462" y="304" type="line"/>
      <point x="462" y="399" type="line"/>
    </contour>
  </outline>
</glyph>
<glyph name="summation.tf" format="1">
  <advance width="556"/>
  <outline>
    <contour>
      <point x="27" y="696" type="line"/>
      <point x="27" y="560" type="line"/>
      <point x="225" y="347" type="line"/>
      <point x="27" y="136" type="line"/>
      <point x="27" y="0" type="line"/>
      <point x="528" y="0" type="line"/>
      <point x="528" y="144" type="line"/>
      <point x="240" y="144" type="line"/>
      <point x="405" y="314" type="line"/>
      <point x="405" y="384" type="line"/>
      <point x="240" y="552" type="line"/>
      <point x="528" y="552" type="line"/>
      <point x="528" y="696" type="line"/>
    </contour>
  </outline>
</glyph>
<glyph name="three.tosf" format="1">
  <advance width="556"/>
  <outline>
    <contour>
      <point x="150" y="587"/>
      <point x="66" y="553"/>
      <point x="0" y="489" type="curve"/>
      <point x="97" y="387" type="line"/>
      <point x="134" y="423"/>
      <point x="180" y="444"/>
      <point x="227" y="444" type="curve" smooth="yes"/>
      <point x="276" y="444"/>
      <point x="306" y="422"/>
      <point x="306" y="381" type="curve" smooth="yes"/>
      <point x="306" y="341"/>
      <point x="279" y="315"/>
      <point x="221" y="315" type="curve" smooth="yes"/>
      <point x="178" y="315" type="line"/>
      <point x="156" y="183" type="line"/>
      <point x="218" y="183" type="line" smooth="yes"/>
      <point x="284" y="183"/>
      <point x="317" y="157"/>
      <point x="317" y="99" type="curve" smooth="yes"/>
      <point x="317" y="46"/>
      <point x="278" y="20"/>
      <point x="227" y="20" type="curve" smooth="yes"/>
      <point x="174" y="20"/>
      <point x="135" y="39"/>
      <point x="94" y="85" type="curve"/>
      <point x="-12" y="-18" type="line"/>
      <point x="42" y="-84"/>
      <point x="123" y="-128"/>
      <point x="241" y="-128" type="curve" smooth="yes"/>
      <point x="427" y="-128"/>
      <point x="519" y="-29"/>
      <point x="519" y="87" type="curve" smooth="yes"/>
      <point x="519" y="199"/>
      <point x="446" y="243"/>
      <point x="360" y="252" type="curve"/>
      <point x="450" y="280"/>
      <point x="496" y="336"/>
      <point x="496" y="415" type="curve" smooth="yes"/>
      <point x="496" y="513"/>
      <point x="412" y="587"/>
      <point x="252" y="587" type="curve" smooth="yes"/>
    </contour>
  </outline>
</glyph>
<glyph name="two.tf" format="1">
  <advance width="556"/>
  <outline>
    <contour>
      <point x="141" y="716"/>
      <point x="59" y="666"/>
      <point x="3" y="591" type="curve"/>
      <point x="120" y="500" type="line"/>
      <point x="158" y="546"/>
      <point x="193" y="568"/>
      <point x="236" y="568" type="curve" smooth="yes"/>
      <point x="286" y="568"/>
      <point x="314" y="537"/>
      <point x="314" y="492" type="curve" smooth="yes"/>
      <point x="314" y="423"/>
      <point x="241" y="346"/>
      <point x="20" y="136" type="curve"/>
      <point x="20" y="0" type="line"/>
      <point x="512" y="0" type="line"/>
      <point x="532" y="148" type="line"/>
      <point x="247" y="148" type="line"/>
      <point x="462" y="332"/>
      <point x="516" y="419"/>
      <point x="516" y="512" type="curve" smooth="yes"/>
      <point x="516" y="619"/>
      <point x="435" y="716"/>
      <point x="261" y="716" type="curve" smooth="yes"/>
    </contour>
  </outline>
</glyph>
<glyph name="two.tosf" format="1">
  <advance width="556"/>
  <outline>
    <contour>
      <point x="155" y="587"/>
      <point x="73" y="546"/>
      <point x="11" y="471" type="curve"/>
      <point x="122" y="381" type="line"/>
      <point x="158" y="422"/>
      <point x="193" y="443"/>
      <point x="238" y="443" type="curve" smooth="yes"/>
      <point x="283" y="443"/>
      <point x="307" y="417"/>
      <point x="307" y="381" type="curve" smooth="yes"/>
      <point x="307" y="325"/>
      <point x="267" y="289"/>
      <point x="33" y="136" type="curve"/>
      <point x="33" y="0" type="line"/>
      <point x="501" y="0" type="line"/>
      <point x="521" y="144" type="line"/>
      <point x="269" y="144" type="line"/>
      <point x="462" y="250"/>
      <point x="507" y="302"/>
      <point x="507" y="398" type="curve" smooth="yes"/>
      <point x="507" y="500"/>
      <point x="418" y="587"/>
      <point x="264" y="587" type="curve" smooth="yes"/>
    </contour>
  </outline>
</glyph>
<glyph name="yen.tf" format="1">
  <advance width="556"/>
  <outline>
    <contour>
      <point x="394" y="696" type="line"/>
      <point x="282" y="407" type="line"/>
      <point x="167" y="696" type="line"/>
      <point x="-41" y="696" type="line"/>
      <point x="181" y="277" type="line"/>
      <point x="181" y="0" type="line"/>
      <point x="377" y="0" type="line"/>
      <point x="377" y="277" type="line"/>
      <point x="597" y="696" type="line"/>
    </contour>
    <contour>
      <point x="53" y="201" type="line"/>
      <point x="53" y="106" type="line"/>
      <point x="507" y="106" type="line"/>
      <point x="507" y="201" type="line"/>
    </contour>
    <contour>
      <point x="53" y="356" type="line"/>
      <point x="53" y="261" type="line"/>
      <point x="507" y="261" type="line"/>
      <point x="507" y="356" type="line"/>
    </contour>
  </outline>
</glyph>
<glyph name="zero.tosf" format="1">
  <advance width="556"/>
  <outline>
    <contour>
      <point x="92" y="587"/>
      <point x="8" y="462"/>
      <point x="8" y="286" type="curve" smooth="yes"/>
      <point x="8" y="110"/>
      <point x="99" y="-20"/>
      <point x="278" y="-20" type="curve" smooth="yes"/>
      <point x="457" y="-20"/>
      <point x="548" y="110"/>
      <point x="548" y="286" type="curve" smooth="yes"/>
      <point x="548" y="462"/>
      <point x="464" y="587"/>
      <point x="278" y="587" type="curve" smooth="yes"/>
    </contour>
    <contour>
      <point x="329" y="447"/>
      <point x="356" y="415"/>
      <point x="356" y="286" type="curve" smooth="yes"/>
      <point x="356" y="157"/>
      <point x="329" y="120"/>
      <point x="278" y="120" type="curve" smooth="yes"/>
      <point x="227" y="120"/>
      <point x="200" y="157"/>
      <point x="200" y="286" type="curve" smooth="yes"/>
      <point x="200" y="415"/>
      <point x="227" y="447"/>
      <point x="278" y="447" type="curve" smooth="yes"/>
    </contour>
  </outline>
</glyph>
<glyph name="zero.tosf.zero" format="1">
  <advance width="556"/>
  <outline>
    <contour>
      <point x="89" y="587"/>
      <point x="8" y="462"/>
      <point x="8" y="286" type="curve" smooth="yes"/>
      <point x="8" y="110"/>
      <point x="101" y="-20"/>
      <point x="278" y="-20" type="curve" smooth="yes"/>
      <point x="460" y="-20"/>
      <point x="548" y="110"/>
      <point x="548" y="286" type="curve" smooth="yes"/>
      <point x="548" y="462"/>
      <point x="462" y="587"/>
      <point x="278" y="587" type="curve" smooth="yes"/>
    </contour>
    <contour>
      <point x="334" y="447"/>
      <point x="361" y="415"/>
      <point x="361" y="286" type="curve" smooth="yes"/>
      <point x="361" y="157"/>
      <point x="334" y="120"/>
      <point x="278" y="120" type="curve" smooth="yes"/>
      <point x="223" y="120"/>
      <point x="196" y="157"/>
      <point x="196" y="286" type="curve" smooth="yes"/>
      <point x="196" y="415"/>
      <point x="223" y="447"/>
      <point x="278" y="447" type="curve" smooth="yes"/>
    </contour>
    <contour>
      <point x="159" y="132" type="line"/>
      <point x="216" y="91" type="line"/>
      <point x="382" y="415" type="line"/>
      <point x="325" y="456" type="line"/>
    </contour>
  </outline>
</glyph>
